<svg width="750" height="520" viewBox="0 0 750 520" fill="none" xmlns="http://www.w3.org/2000/svg">
  <rect width="750" height="520" fill="#FFFBEB"/>
  <circle cx="630" cy="74" r="150" fill="#FF7A1A" opacity=".20"/>
  <circle cx="116" cy="426" r="178" fill="#2FB875" opacity=".18"/>
  <path d="M274 128c-20-28 28-40 4-70M376 116c-18-24 24-40 2-66M474 130c-18-26 26-38 4-66" stroke="#9A3412" stroke-width="10" stroke-linecap="round" opacity=".35"/>
  <ellipse cx="375" cy="316" rx="250" ry="104" fill="#FFFFFF" stroke="#5B2B6F" stroke-width="12"/>
  <ellipse cx="375" cy="302" rx="168" ry="62" fill="#FFB703"/>
  <path d="M235 302c48-56 210-74 292-18" stroke="#FF6B1A" stroke-width="18" stroke-linecap="round" opacity=".70"/>
  <circle cx="326" cy="276" r="36" fill="#FF4D4D"/>
  <circle cx="424" cy="284" r="42" fill="#2FB875"/>
  <rect x="382" y="238" width="96" height="34" rx="17" fill="#FFF1E8" stroke="#FF7A1A" stroke-width="8" transform="rotate(14 382 238)"/>
  <path d="M286 332c36 20 140 34 210 0" stroke="#5B2B6F" stroke-width="10" stroke-linecap="round" opacity=".26"/>
</svg>
